<svg width="400" height="313" viewBox="0 0 400 313" fill="none" xmlns="http://www.w3.org/2000/svg">
<g style="mix-blend-mode:luminosity">
<rect x="59.5769" y="230.531" width="56.0169" height="58.1714" fill="url(#paint0_linear_216_2373)"/>
<path d="M91.3728 108.436C95.0331 107.859 98.5634 109.076 101.069 111.431L84.7021 7.69025C83.9171 2.72496 79.2533 -0.670166 74.2828 0.114922C69.3123 0.900009 65.9224 5.56377 66.7075 10.5343L83.0696 114.27C84.7333 111.254 87.7125 109.013 91.3728 108.436Z" fill="#9CE6B6"/>
<path d="M83.0756 114.27C81.8833 116.432 81.3753 118.993 81.7848 121.619L96.0813 212.229H98.528L83.0756 114.27Z" fill="#65C299"/>
<path d="M119.421 212.23L104.558 118.027C104.144 115.4 102.869 113.123 101.069 111.43L116.972 212.23H119.421Z" fill="#65C299"/>
<path d="M116.971 212.229L101.07 111.429C98.5592 109.076 95.0315 107.862 91.3714 108.437C87.7113 109.015 84.7292 111.256 83.0713 114.271L98.5221 212.229H116.971Z" fill="#65C299"/>
<path d="M307.975 108.436C311.639 109.013 314.62 111.255 316.276 114.27L332.646 10.5323C333.428 5.56107 330.036 0.897896 325.061 0.112198C320.099 -0.670181 315.428 2.72305 314.647 7.69095L298.277 111.429C300.788 109.074 304.312 107.859 307.975 108.436Z" fill="#9CE6B6"/>
<path d="M298.278 111.429C296.477 113.123 295.208 115.4 294.791 118.026L279.929 212.229H282.377L298.278 111.429Z" fill="#65C299"/>
<path d="M303.266 212.228L317.567 121.617C317.978 118.99 317.469 116.431 316.274 114.269L300.817 212.228H303.266Z" fill="#65C299"/>
<path d="M300.819 212.228L316.276 114.269C314.62 111.255 311.634 109.013 307.971 108.436C304.313 107.859 300.786 109.074 298.276 111.428L282.381 212.228H300.819Z" fill="#65C299"/>
<path d="M96.0814 212.229H21.4067C15.5896 212.229 10.8706 216.946 10.8706 222.764V223.941H97.9307L96.0814 212.229Z" fill="url(#paint1_linear_216_2373)"/>
<path d="M120.838 223.941H278.504C278.39 222.928 278.403 221.883 278.573 220.828L279.927 212.23H119.421L120.775 220.828C120.939 221.883 120.951 222.928 120.838 223.941Z" fill="url(#paint2_linear_216_2373)"/>
<path d="M388.482 223.939V222.763C388.482 216.946 383.761 212.228 377.941 212.228H303.268L301.423 223.939H388.482Z" fill="url(#paint3_linear_216_2373)"/>
<path d="M118.389 221.202C118.538 222.136 118.538 223.056 118.41 223.941H120.842C120.959 222.927 120.948 221.882 120.778 220.827L119.421 212.229H116.973L118.389 221.202Z" fill="#65C299"/>
<path d="M100.377 223.942L98.5274 212.23H96.0806L97.93 223.942H100.377Z" fill="#65C299"/>
<path d="M118.39 221.202L116.978 212.229H98.5278L100.38 223.941H118.411C118.538 223.056 118.538 222.135 118.39 221.202Z" fill="#65C299"/>
<path d="M298.975 223.94H301.422L303.271 212.228H300.824L298.975 223.94Z" fill="#65C299"/>
<path d="M278.509 223.941H280.945C280.813 223.056 280.813 222.135 280.958 221.202L282.378 212.229H279.929L278.572 220.827C278.408 221.882 278.389 222.927 278.509 223.941Z" fill="#65C299"/>
<path d="M279.876 302.825C280.71 297.53 285.282 293.751 290.475 293.751C291.036 293.751 291.597 293.797 292.166 293.884C296.927 294.637 300.46 298.407 301.12 302.942L303.993 302.942C303.318 297.023 298.777 292.041 292.606 291.069C291.893 290.956 291.18 290.903 290.475 290.903C283.902 290.903 278.117 295.681 277.063 302.379L276.972 302.942L279.861 302.942L279.876 302.825Z" fill="#54A878"/>
<path d="M97.7221 302.815C98.6256 297.078 103.578 292.985 109.205 292.985C109.812 292.985 110.42 293.034 111.036 293.128C116.195 293.944 120.022 298.029 120.737 302.942L123.85 302.942C123.119 296.53 118.199 291.132 111.513 290.079C110.741 289.956 109.969 289.9 109.205 289.9C102.083 289.9 95.8165 295.075 94.6748 302.332L94.5763 302.942L97.7056 302.942L97.7221 302.815Z" fill="url(#paint4_linear_216_2373)"/>
<path d="M292.166 293.883C291.598 293.796 291.039 293.751 290.479 293.751C285.283 293.751 280.714 297.529 279.874 302.824L279.859 302.941L301.121 302.941C300.463 298.407 296.931 294.636 292.166 293.883Z" fill="#54A878"/>
<path d="M111.037 293.128C110.422 293.033 109.816 292.984 109.209 292.984C103.58 292.984 98.6302 297.077 97.7206 302.814L97.7042 302.941L120.739 302.941C120.026 298.029 116.199 293.943 111.037 293.128Z" fill="url(#paint5_linear_216_2373)"/>
<path d="M300.824 212.228H282.379L280.965 221.201C280.818 222.134 280.818 223.055 280.946 223.939H298.974L300.824 212.228Z" fill="#65C299"/>
<path d="M10.8706 302.465C10.8706 308.282 15.5912 313 21.4049 313H377.941C383.762 313 388.483 308.282 388.483 302.465V301.284H10.8706V302.465Z" fill="#2B6C4F"/>
<path d="M328.411 271.894C323.076 271.894 318.746 267.567 318.746 262.228C318.746 256.888 323.076 252.561 328.411 252.561C333.753 252.561 338.076 256.888 338.076 262.228C338.076 267.567 333.753 271.894 328.411 271.894ZM291.599 271.894C286.264 271.894 281.934 267.567 281.934 262.228C281.934 256.888 286.264 252.561 291.599 252.561C296.941 252.561 301.271 256.888 301.271 262.228C301.271 267.567 296.941 271.894 291.599 271.894ZM254.787 271.894C249.452 271.894 245.122 267.567 245.122 262.228C245.122 256.888 249.452 252.561 254.787 252.561C260.129 252.561 264.459 256.888 264.459 262.228C264.459 267.567 260.129 271.894 254.787 271.894ZM217.975 271.894C212.64 271.894 208.31 267.567 208.31 262.228C208.31 256.888 212.64 252.561 217.975 252.561C223.318 252.561 227.648 256.888 227.648 262.228C227.648 267.567 223.318 271.894 217.975 271.894ZM87.0146 287.974C72.8156 287.974 61.2736 276.422 61.2736 262.228C61.2736 255.041 64.2962 248.245 69.4275 243.431C71.6839 241.311 75.3461 241.898 76.8855 244.583C77.989 246.504 77.6727 248.954 76.056 250.467C72.8366 253.476 70.9388 257.728 70.9388 262.228C70.9388 271.092 78.1508 278.304 87.0146 278.304C95.8784 278.304 103.09 271.092 103.09 262.228C103.09 257.728 101.192 253.476 97.9801 250.467C96.3564 248.954 96.04 246.504 97.1436 244.583C98.69 241.898 102.345 241.311 104.609 243.431C109.733 248.245 112.762 255.041 112.762 262.228C112.762 276.422 101.214 287.974 87.0146 287.974ZM82.1784 237.251C82.1784 234.583 84.3435 232.419 87.0146 232.419C89.6856 232.419 91.8506 234.583 91.8506 237.251L91.8506 257.911C91.8506 260.579 89.6856 262.744 87.0146 262.744C84.3435 262.744 82.1784 260.579 82.1784 257.911L82.1784 237.251ZM390.591 223.942L388.483 223.942L10.8673 223.942L8.75851 223.942C3.92242 223.942 0.000182763 227.864 0.00018234 232.7L0.00017711 292.525C0.000176687 297.364 3.92242 301.286 8.75851 301.286L10.8673 301.286L97.9309 301.286L98.0082 300.808C98.9009 295.129 103.807 291.078 109.381 291.078C109.979 291.078 110.576 291.123 111.188 291.219C116.418 292.044 120.27 296.267 120.839 301.286L278.511 301.286C279.087 296.267 282.932 292.044 288.162 291.219C288.773 291.123 289.378 291.078 289.975 291.078C295.55 291.078 300.449 295.129 301.349 300.808L301.419 301.286L388.482 301.286L390.591 301.286C395.427 301.286 399.35 297.364 399.35 292.525L399.35 232.701C399.35 227.864 395.427 223.942 390.591 223.942Z" fill="url(#paint6_linear_216_2373)"/>
<path d="M217.979 252.561C212.637 252.561 208.312 256.887 208.312 262.227C208.312 267.567 212.636 271.893 217.979 271.893C223.316 271.893 227.641 267.567 227.641 262.227C227.641 256.887 223.316 252.561 217.979 252.561Z" fill="white"/>
<path d="M254.785 252.562C249.453 252.562 245.121 256.889 245.121 262.228C245.121 267.568 249.453 271.895 254.785 271.895C260.128 271.895 264.455 267.568 264.455 262.228C264.455 256.889 260.128 252.562 254.785 252.562Z" fill="white"/>
<path d="M291.607 252.562C286.265 252.562 281.941 256.888 281.941 262.228C281.941 267.567 286.265 271.894 291.607 271.894C296.949 271.894 301.273 267.567 301.273 262.228C301.273 256.888 296.949 252.562 291.607 252.562Z" fill="white"/>
<path d="M328.411 252.562C323.073 252.562 318.745 256.889 318.745 262.229C318.745 267.568 323.073 271.895 328.411 271.895C333.753 271.895 338.076 267.568 338.076 262.229C338.076 256.889 333.753 252.562 328.411 252.562Z" fill="white"/>
<path d="M95.0549 250.767C93.5405 249.372 91.0906 249.758 90.0572 251.524C89.3178 252.789 89.5316 254.402 90.614 255.398C92.7699 257.378 94.0393 260.177 94.0393 263.138C94.0393 268.973 89.2109 273.72 83.2777 273.72C77.3401 273.72 72.5116 268.973 72.5116 263.138C72.5116 260.177 73.7856 257.378 75.937 255.398C77.0239 254.402 77.2332 252.789 76.4938 251.524C75.4649 249.758 73.015 249.372 71.5005 250.767C68.0662 253.935 66.0395 258.408 66.0395 263.138C66.0395 272.481 73.7722 280.084 83.2777 280.084C92.7832 280.084 100.511 272.481 100.511 263.138C100.511 258.408 98.4848 253.935 95.0549 250.767Z" fill="white"/>
<path d="M83.2757 262.848C85.6541 262.848 87.5847 261.464 87.5847 259.758L87.5847 246.548C87.5847 244.842 85.6541 243.458 83.2757 243.458C80.8973 243.458 78.9667 244.842 78.9667 246.548L78.9667 259.758C78.9667 261.464 80.8973 262.848 83.2757 262.848Z" fill="white"/>
<path d="M200.697 129.269C204.861 129.269 208.237 125.411 208.237 120.651C208.237 115.891 204.861 112.033 200.697 112.033C196.532 112.033 193.156 115.891 193.156 120.651C193.156 125.411 196.532 129.269 200.697 129.269Z" fill="#9CE6B6"/>
<path d="M149.653 81.7143C147.66 81.7143 145.666 80.9538 144.146 79.4348C141.104 76.3949 141.104 71.4683 144.146 68.4273C159.242 53.3423 179.313 45.0353 200.661 45.0353C222.01 45.0353 242.082 53.3423 257.177 68.4283C260.218 71.4673 260.218 76.3949 257.176 79.4348C254.134 82.4728 249.203 82.4738 246.161 79.4338C234.008 67.2891 217.849 60.6008 200.66 60.6008C183.472 60.6008 167.313 67.2891 155.158 79.4348C153.638 80.9548 151.646 81.7143 149.653 81.7143Z" fill="#9CE6B6"/>
<path d="M222.802 103.941C220.809 103.941 218.815 103.18 217.294 101.661C208.125 92.4961 193.207 92.4961 184.038 101.661C180.996 104.699 176.065 104.7 173.023 101.66C169.981 98.6214 169.981 93.6938 173.023 90.6538C188.267 75.4228 213.069 75.4228 228.31 90.6538C231.351 93.6938 231.351 98.6204 228.31 101.661C226.789 103.181 224.795 103.941 222.802 103.941Z" fill="#9CE6B6"/>
</g>
<defs>
<linearGradient id="paint0_linear_216_2373" x1="116.671" y1="239.014" x2="54.7474" y2="267.036" gradientUnits="userSpaceOnUse">
<stop stop-color="#96CEA8"/>
<stop offset="1" stop-color="#AEDDBA"/>
</linearGradient>
<linearGradient id="paint1_linear_216_2373" x1="54.4006" y1="223.941" x2="54.4006" y2="212.229" gradientUnits="userSpaceOnUse">
<stop stop-color="#1D4F39"/>
<stop offset="1" stop-color="#50B186"/>
</linearGradient>
<linearGradient id="paint2_linear_216_2373" x1="199.674" y1="223.941" x2="199.674" y2="212.23" gradientUnits="userSpaceOnUse">
<stop stop-color="#1D4F39"/>
<stop offset="1" stop-color="#50B186"/>
</linearGradient>
<linearGradient id="paint3_linear_216_2373" x1="344.952" y1="223.939" x2="344.952" y2="212.228" gradientUnits="userSpaceOnUse">
<stop stop-color="#1D4F39"/>
<stop offset="1" stop-color="#50B186"/>
</linearGradient>
<linearGradient id="paint4_linear_216_2373" x1="99.4348" y1="299.475" x2="119.903" y2="297.32" gradientUnits="userSpaceOnUse">
<stop stop-color="#98CFA9"/>
<stop offset="1" stop-color="#9AD1AB"/>
<stop offset="1" stop-color="#9FD4AE"/>
</linearGradient>
<linearGradient id="paint5_linear_216_2373" x1="95.1268" y1="300.552" x2="125.338" y2="300.944" gradientUnits="userSpaceOnUse">
<stop stop-color="#9ED3AE"/>
<stop offset="1" stop-color="#94CDA6"/>
</linearGradient>
<linearGradient id="paint6_linear_216_2373" x1="0.000179725" y1="262.614" x2="399.35" y2="262.614" gradientUnits="userSpaceOnUse">
<stop stop-color="#C6EBCB"/>
<stop offset="1" stop-color="#228A53"/>
</linearGradient>
</defs>
</svg>
