<svg width="270" height="60" viewBox="0 0 270 60" fill="none" xmlns="http://www.w3.org/2000/svg">
<path d="M81.0007 30.5C81.0007 18.0744 70.9262 8 58.5004 8C46.0746 8 36 18.0744 36 30.5C36 42.9256 46.0746 53 58.5004 53C70.9223 52.9885 80.9892 42.9218 81.0007 30.5Z" fill="#FFCC00"/>
<path d="M69.3375 26.7518C69.3375 20.6102 64.3617 15.6307 58.22 15.6307C52.0783 15.6307 47.0988 20.6064 47.0988 26.748C47.0988 26.748 47.0988 26.748 47.0988 26.7518C47.0988 32.9011 44.5128 44.003 50.6622 44.003C78.0382 43.9991 69.3375 32.9011 69.3375 26.7518ZM55.761 33.1628C53.4752 33.1628 51.6396 30.5769 51.6396 27.3829C51.6396 24.1928 53.4752 21.6069 55.7649 21.6069C58.0546 21.6069 59.8901 24.1928 59.8901 27.3829C59.8901 30.573 58.0122 33.1628 55.761 33.1628ZM65.3238 31.2503C63.5228 31.2503 62.0605 29.1877 62.0605 26.6749C62.0605 24.162 63.5228 22.0994 65.3238 22.0994C67.1247 22.0994 68.5871 24.162 68.5871 26.6749C68.5871 29.2262 67.1247 31.2503 65.3238 31.2503Z" fill="#323232"/>
<path d="M97.6504 42.0477C90.5274 42.0477 88.8765 37.6608 88.7611 33.9782C88.4609 26.3319 92.5131 18.12 102.037 18.12C103.592 18.1046 105.143 18.2932 106.647 18.6818L105.785 22.1336C104.45 21.718 103.061 21.5025 101.66 21.4948C95.4723 21.4948 92.9248 27.3093 93.1095 33.0815C93.2211 36.795 95.1337 38.5959 98.8857 38.5959C100.41 38.5805 101.93 38.415 103.423 38.1072C104.208 37.9071 104.974 37.6416 105.712 37.3145C105.959 38.365 106.136 39.4271 106.24 40.5007C105.501 40.8355 104.735 41.101 103.95 41.2934C101.88 41.7437 99.7708 41.9977 97.6504 42.0438V42.0477Z" fill="#323232"/>
<path d="M110.064 46.7389C108.575 48.432 106.435 49.4133 104.176 49.4364C103.422 49.4402 102.668 49.3671 101.929 49.2132L102.456 45.8769C103.056 46.0885 103.695 46.1924 104.33 46.177C105.384 46.1616 106.389 45.7153 107.108 44.9379C108.067 43.8912 108.528 42.4867 108.382 41.0744C108.036 36.2373 107.085 31.4656 105.561 26.8633H109.794C110.826 30.3689 111.457 33.9785 111.668 37.6265C111.668 38.0536 111.63 38.4808 111.557 38.9002H111.634C113.604 35.0367 115.297 31.0423 116.698 26.9364L120.6 26.8979C116.89 37.5495 113.477 43.1755 110.064 46.7389Z" fill="#323232"/>
<path d="M124.541 42.1601C122.736 42.1754 120.939 41.9869 119.176 41.5982L122.101 22.7732L122.139 22.6962C121.427 22.5846 120.45 22.473 119.588 22.3961L119.961 19.9602C122.101 19.7178 124.26 19.6293 126.411 19.6947L125.399 26.1441C125.068 27.9951 124.579 29.8153 123.936 31.5815H124.013C125.437 28.5839 127.5 26.4443 130.163 26.4443C132.453 26.4443 133.765 27.9451 133.876 31.1313C134.026 36.9112 131.14 42.1601 124.541 42.1601ZM128.701 29.823C126.526 29.823 124.052 34.7716 123.563 37.8925L123.375 38.9045C123.929 39.0431 124.494 39.1162 125.064 39.1277C128.55 39.1277 130.013 35.0795 129.901 31.9279C129.867 30.4617 129.451 29.823 128.701 29.823Z" fill="#323232"/>
<path d="M138.262 35.7483C138.211 36.1446 138.2 36.5487 138.223 36.9489C138.3 38.669 138.973 39.1962 141.075 39.1962C142.568 39.1808 144.045 38.8729 145.423 38.2957L146.512 37.8455L145.912 41.1087C143.999 41.8052 141.983 42.1746 139.951 42.1977C136.126 42.1977 134.552 40.4353 134.436 37.099C134.213 30.7996 137.884 26.5166 142.575 26.5166C146.289 26.5166 147.524 28.3522 147.601 30.1916C147.674 33.8011 144.149 35.5636 138.262 35.7483ZM142.198 29.3758C140.213 29.3758 139.047 31.1767 138.562 33.1623C142.048 33.0507 143.853 32.3003 143.772 30.7265C143.776 29.8606 143.176 29.3758 142.198 29.3758Z" fill="#323232"/>
<path d="M157.161 30.307C154.498 29.295 152.062 33.7934 151.311 38.5959L150.823 41.8591H147.036C147.036 41.8591 148.649 31.8848 148.872 30.384C149.06 29.1641 148.641 27.9289 147.748 27.0785L152.997 26.6282C152.72 28.2175 152.331 29.7837 151.835 31.3152H151.912C153.413 28.0905 154.986 25.8778 157.838 26.4782L157.161 30.307Z" fill="#323232"/>
<path d="M170.026 42.086C163.765 42.086 160.24 38.9344 160.052 33.2738C159.751 24.3847 165.866 17.9737 174.64 17.9737C176.83 17.9698 179.008 18.2469 181.128 18.7972L180.116 22.4337C178.242 21.741 176.264 21.3716 174.267 21.3446C168.306 21.3446 163.992 26.2202 164.215 32.6697C164.327 36.4562 166.767 38.7074 170.738 38.7074C171.943 38.7112 173.143 38.5458 174.301 38.2187L174.525 38.1417L175.798 29.8182H179.547L177.857 40.7661C175.329 41.6089 172.685 42.0514 170.018 42.0784L170.026 42.086Z" fill="#323232"/>
<path d="M194.928 41.8976H191.141L192.642 32.4466C192.907 30.611 192.603 29.8606 191.63 29.8606C189.606 29.8606 187.054 34.5861 186.492 38.111L185.892 41.9361H182.102L185.065 22.8494L185.103 22.7724C184.391 22.6608 183.414 22.5492 182.552 22.4722L182.89 20.0364C185.03 19.7939 187.189 19.7054 189.34 19.7709L188.366 26.1472C188.051 27.9751 187.574 29.7683 186.943 31.5115L187.02 31.55C188.293 28.8524 190.283 26.5243 193.169 26.5243C196.094 26.5243 197.033 28.5869 196.544 31.5115L194.928 41.8976Z" fill="#323232"/>
<path d="M203.289 42.202C199.087 42.202 197.328 40.2164 197.213 36.8031C196.99 30.5037 201.115 26.5286 205.914 26.5286C210.227 26.5286 211.913 28.8182 212.028 32.0045C212.251 38.2269 208.015 42.202 203.289 42.202ZM205.463 29.8264C202.65 29.8264 201.076 33.2012 201.188 36.2028C201.265 37.8536 201.938 38.8657 203.701 38.8657C206.398 38.8657 208.165 35.868 208.049 32.4893C207.972 30.7577 207.226 29.8341 205.459 29.8341V29.8264H205.463Z" fill="#323232"/>
<path d="M232.536 29.8257H228.973L227.922 36.6138C227.657 38.4148 227.922 38.9035 229.162 38.9035C229.793 38.915 230.424 38.8419 231.036 38.6803L230.77 41.7549C229.762 42.0012 228.731 42.1397 227.695 42.1667C224.471 42.1667 223.493 40.6313 224.059 37.0294L225.183 29.8296H222.785L223.274 26.8319H225.675L226.387 22.1833L230.289 21.3906L229.466 26.828H233.025L232.536 29.8257Z" fill="#323232"/>
<path d="M219.606 29.3383C220.402 29.3268 221.199 29.4268 221.968 29.6385L222.457 26.787C221.53 26.6138 220.587 26.5253 219.644 26.5215C215.33 26.5215 213.268 28.6572 213.345 31.3971C213.456 34.9604 217.32 35.4107 217.393 37.4348C217.427 38.0543 217.066 38.6238 216.492 38.8586H216.454C216.342 38.8971 216.188 38.9702 216.077 39.0087C214.591 39.4512 212.994 39.305 211.613 38.5969C211.078 39.6782 210.278 40.6095 209.289 41.2944C211.016 41.8755 212.825 42.1795 214.649 42.1949C219.336 42.2334 221.437 39.5705 221.36 37.0577C221.249 33.7213 217.312 32.8555 217.235 30.9815C217.239 30.0502 218.024 29.3383 219.606 29.3383Z" fill="#323232"/>
</svg>
