<svg width="168" height="50" viewBox="0 0 168 50" fill="none" xmlns="http://www.w3.org/2000/svg">
<path fill-rule="evenodd" clip-rule="evenodd" d="M67.8493 27.348L67.1019 29.9485H59.4494V29.5819L60.44 28.8814V20.515L59.4494 19.8145V19.448H67.4593L67.6379 19.6313L67.1347 21.9817H66.7773C66.4522 20.5313 65.9808 20.3318 63.6412 20.3318H62.52V24.1815L66.2081 23.9483L66.2895 24.0145L65.948 25.248L65.8507 25.2816L62.52 24.9487V29.0647H63.5762C65.477 29.0647 66.4686 28.7653 67.492 27.2152L67.8493 27.348ZM146.668 19.8145L145.677 20.515V29.8146L145.547 29.9485H143.971L138.154 21.6987V28.8814L139.324 29.5819V29.9485H136.106V29.5819L137.098 28.8814V20.4819L135.96 19.8145V19.448H139.031L144.62 27.4147V20.515L143.451 19.8145V19.448H146.668V19.8145ZM129.932 28.8814L131.102 29.5819V29.9485H126.878V29.5819L127.869 28.8814V20.515L126.878 19.8145V19.448H131.168C134.157 19.448 135.7 20.4982 135.7 22.5148C135.7 24.8148 133.524 26.3818 130.29 26.3818C130.144 26.3818 130.014 26.3818 129.932 26.3645V28.8814ZM126.066 19.8145L125.058 20.4982L121.711 29.9485H119.777L116.219 20.5481L115.18 19.8145V19.448H119.372V19.8145L118.348 20.5313L121.24 28.1478H121.354L123.791 20.515L122.751 19.8145V19.448H126.066V19.8145ZM129.932 25.4985C132.207 25.5652 133.588 24.4483 133.588 22.5656C133.588 21.015 132.809 20.232 131.249 20.232C130.81 20.232 130.307 20.3481 129.932 20.5313V25.4985ZM86.7783 25.5983C86.7783 28.215 85.072 30.0818 82.6833 30.0818C81.985 30.0818 81.3999 29.8981 80.8316 29.6486V32.2149L82.0014 32.9149V33.2815H77.8578V32.9149L78.8658 32.2149V23.0819L77.8578 22.4649V22.0978L80.5388 21.548L80.8316 21.7486V22.9149C81.4654 22.0815 82.4724 21.5653 83.5126 21.5653C85.4458 21.5653 86.7783 23.2982 86.7783 25.5983ZM93.326 23.3985H92.9687C92.7086 23.2315 92.4322 23.1481 92.1558 23.1481C91.5552 23.1481 90.9865 23.3817 90.4827 23.8313V28.8814L91.6853 29.5819V29.9485H87.493V29.5819L88.5005 28.8814V23.0819L87.493 22.4649V22.0978L90.1899 21.548L90.4827 21.7486V23.0646C91.0024 22.1981 91.9126 21.5816 92.8223 21.5816C93.2451 21.5816 93.6025 21.6987 93.8948 21.9145L93.326 23.3985ZM99.435 25.6981C98.3466 25.6981 97.1282 25.665 95.7961 25.6151C95.9748 27.4819 96.9654 28.5648 98.5903 28.5648C99.5651 28.5648 100.199 28.3148 100.735 27.8485L101.076 28.1152C100.54 29.4312 99.3378 30.148 97.7779 30.148C95.3897 30.148 93.7812 28.465 93.7812 25.8982C93.7812 23.4484 95.3733 21.548 97.7943 21.548C98.9154 21.548 99.7601 21.9145 100.362 22.6318C100.963 23.3486 101.255 24.2813 101.239 25.4313L100.995 25.6818C100.67 25.6981 100.15 25.6981 99.435 25.6981ZM102.652 27.5817H102.994C103.627 28.6482 104.553 29.2648 105.349 29.2648C106.065 29.2648 106.503 28.8814 106.503 28.2817C106.503 27.598 106.113 27.2315 105.138 26.8486L104.407 26.5651C103.026 26.0315 102.197 25.1819 102.197 24.0649C102.197 22.6817 103.465 21.6152 105.349 21.6152C106.438 21.6152 107.478 21.8819 108.242 22.3483L107.462 23.7152H107.137C106.601 22.865 105.935 22.4318 105.154 22.4318C104.456 22.4318 104.001 22.8314 104.001 23.3817C104.001 23.9814 104.423 24.348 105.675 24.8484L106.503 25.1819C107.77 25.6818 108.323 26.4653 108.323 27.4819C108.323 29.0815 107.072 30.0818 105.171 30.0818C104.001 30.0818 102.815 29.7652 101.954 29.2154L102.652 27.5817ZM109.785 27.5817H110.126C110.76 28.6482 111.686 29.2648 112.482 29.2648C113.197 29.2648 113.636 28.8814 113.636 28.2817C113.636 27.598 113.246 27.2315 112.271 26.8486L111.54 26.5651C110.159 26.0315 109.33 25.1819 109.33 24.0649C109.33 22.6817 110.597 21.6152 112.482 21.6152C113.571 21.6152 114.611 21.8819 115.374 22.3483L114.595 23.7152H114.269C113.733 22.865 113.067 22.4318 112.287 22.4318C111.589 22.4318 111.133 22.8314 111.133 23.3817C111.133 23.9814 111.556 24.348 112.807 24.8484L113.636 25.1819C114.903 25.6818 115.456 26.4653 115.456 27.4819C115.456 29.0815 114.205 30.0818 112.303 30.0818C111.133 30.0818 109.948 29.7652 109.086 29.2154L109.785 27.5817ZM73.7802 25.7317L76.1684 28.8814L77.0617 29.5819V29.9485H73.0163V29.5819L73.8615 28.9313L72.2362 26.6653L70.6763 28.9313L71.6188 29.5819V29.9485H68.4017V29.5819L69.3933 28.8982L71.7165 25.9653L69.3442 22.865L68.4345 22.1319V21.7654H72.4635V22.1319L71.6351 22.7815L73.2437 25.0317L74.8035 22.7815L73.8615 22.1319V21.7654H77.0781V22.1319L76.087 22.8151L73.7802 25.7317ZM99.175 24.6147C98.9963 23.1481 98.3308 22.4481 97.4369 22.4481C96.4622 22.4481 95.812 23.4316 95.7634 24.8321L99.175 24.6147ZM84.8284 26.448C84.8284 24.5984 83.9514 23.0646 82.5374 23.0646C81.9528 23.0646 81.384 23.2651 80.8316 23.6816V28.0648C81.2867 28.7816 81.985 29.1319 82.8134 29.1319C84.0487 29.1319 84.8284 28.1315 84.8284 26.448ZM28.8909 37.0507C25.528 37.0507 23.383 35.1127 23.383 32.4194C23.383 31.5322 23.6392 30.4489 24.6317 28.2481H21.1094L24.3433 21.1528H46.8543C47.3667 21.1528 47.7188 20.7591 47.7188 20.2997C47.7188 19.8392 47.3667 19.445 46.8543 19.445H28.6343L30.2355 15.9307C31.2281 13.763 33.3736 12.3507 35.7108 12.3507H43.3642C47.7828 12.3507 51.049 15.4708 51.049 19.5433C51.049 24.3722 46.7262 28.2481 41.7312 28.2481H26.9376C26.4888 29.2005 27.0012 29.9564 28.0901 29.9564H39.8737C41.827 29.9564 43.332 31.3682 43.332 33.1748C43.332 35.2441 41.3791 37.0507 39.1691 37.0507H28.8909Z" fill="#DA3940"/>
</svg>
