<svg width="137" height="30" viewBox="0 0 137 30" fill="none" xmlns="http://www.w3.org/2000/svg">
<path d="M32.4688 22.5787C31.129 23.9185 29.5148 24.5875 27.6246 24.5875C25.7343 24.5875 24.1202 23.9185 22.7803 22.5787C21.4405 21.2406 20.7715 19.6247 20.7715 17.7344C20.7715 15.8442 21.4405 14.23 22.7803 12.8902C24.1202 11.5504 25.7343 10.8813 27.6246 10.8813C29.5148 10.8813 31.129 11.5504 32.4688 12.8902C33.8069 14.23 34.4777 15.8442 34.4777 17.7344C34.4777 19.6247 33.8087 21.2389 32.4688 22.5787ZM24.9396 20.4194C25.6848 21.1645 26.5786 21.5362 27.6246 21.5362C28.6706 21.5362 29.5644 21.1645 30.3095 20.4194C31.0547 19.6743 31.4264 18.7805 31.4264 17.7344C31.4264 16.6884 31.0547 15.7734 30.3095 15.0282C29.5644 14.2831 28.6688 13.9114 27.6246 13.9114C26.5803 13.9114 25.6848 14.2831 24.9396 15.0282C24.1945 15.7734 23.8228 16.6743 23.8228 17.7344C23.8228 18.7946 24.1945 19.6743 24.9396 20.4194Z" fill="#EF4444"/>
<path d="M36.002 18.4868V10.8833H39.0303V18.4868C39.0303 19.3169 39.3276 20.0337 39.9223 20.6355C40.517 21.2373 41.2356 21.5382 42.0816 21.5382C42.9276 21.5382 43.6462 21.2373 44.2409 20.6355C44.8356 20.0337 45.1329 19.3187 45.1329 18.4868V10.8833H48.1825V18.4868C48.1825 20.1771 47.5878 21.6161 46.4002 22.8037C45.2126 23.9913 43.7719 24.586 42.0834 24.586C40.3949 24.586 38.9754 23.9913 37.7878 22.8037C36.5984 21.6161 36.0055 20.1753 36.0055 18.4868H36.002Z" fill="#EF4444"/>
<path d="M54.1538 7.08154V10.7329H55.529V13.009H54.1538V20.0107C54.1538 20.4408 54.3007 20.8019 54.5945 21.0957C54.8883 21.3895 55.2423 21.5364 55.6582 21.5364H56.4317V24.586H55.6582C54.398 24.586 53.3237 24.1382 52.4352 23.2444C51.5467 22.3488 51.1042 21.2709 51.1042 20.0107V13.009H49.729V10.7329H51.1042V7.08154H54.1538Z" fill="#EF4444"/>
<path d="M58.9963 12.8922C60.3344 11.5541 61.9503 10.8833 63.8406 10.8833C65.7309 10.8833 67.345 11.5523 68.6848 12.8922C70.0229 14.232 70.6937 15.8461 70.6937 17.7364C70.6937 18.0514 70.6724 18.3594 70.63 18.6603H61.2866V16.3842H67.4087C67.1362 15.6532 66.6742 15.0603 66.0229 14.6019C65.3716 14.1435 64.6441 13.9152 63.8424 13.9152C62.7822 13.9152 61.8831 14.2904 61.1468 15.0426C60.4087 15.7948 60.0406 16.6939 60.0406 17.7382C60.0406 18.7824 60.4052 19.6603 61.1362 20.4125C61.8671 21.1647 62.768 21.5399 63.8424 21.5399C64.7875 21.5399 65.6034 21.2391 66.2901 20.6373H70.0494C69.4901 21.8267 68.6565 22.7824 67.5468 23.5045C66.4371 24.2284 65.2016 24.5895 63.8424 24.5895C61.9521 24.5895 60.3379 23.9205 58.9981 22.5807C57.6583 21.2426 56.9893 19.6267 56.9893 17.7364C56.9893 15.8461 57.6583 14.232 58.9981 12.8922H58.9963Z" fill="#EF4444"/>
<path d="M72.1538 17.7132C72.1538 15.8229 72.8228 14.2123 74.1627 12.8796C75.5007 11.5486 77.1166 10.8813 79.0069 10.8813V13.9309C77.9609 13.9309 77.0671 14.299 76.3219 15.0371C75.5768 15.7751 75.2051 16.6654 75.2051 17.7114V24.5858H72.1556V17.7114L72.1538 17.7132Z" fill="#EF4444"/>
<path d="M80.5945 7.08154H82.1201V23.0621H89.8317V24.5877H80.5945V7.08154Z" fill="white"/>
<path d="M112.407 24.5875C110.517 24.5875 108.902 23.9185 107.563 22.5787C106.223 21.2406 105.554 19.6247 105.554 17.7344C105.554 15.8442 106.223 14.23 107.563 12.8902C108.901 11.5521 110.517 10.8813 112.407 10.8813C114.297 10.8813 115.911 11.5504 117.251 12.8902C118.589 14.23 119.26 15.8442 119.26 17.7344V23.1468C119.26 25.0229 118.587 26.6336 117.24 27.9805C115.894 29.3256 114.283 29.9999 112.407 29.9999C110.961 29.9999 109.649 29.584 108.476 28.7539C107.301 27.9238 106.471 26.8495 105.984 25.5309H107.637C108.081 26.4194 108.729 27.1309 109.58 27.669C110.432 28.2052 111.373 28.4743 112.405 28.4743C113.879 28.4743 115.136 27.9557 116.175 26.9167C117.214 25.8778 117.732 24.6212 117.732 23.1468V17.7344C117.732 16.2601 117.214 15.0035 116.175 13.9645C115.136 12.9256 113.879 12.407 112.405 12.407C110.931 12.407 109.674 12.9256 108.635 13.9645C107.596 15.0035 107.078 16.2601 107.078 17.7344C107.078 19.2088 107.596 20.4654 108.635 21.5044C109.674 22.5433 110.929 23.0619 112.405 23.0619C113.263 23.0619 114.065 22.8725 114.81 22.492C115.555 22.1132 116.178 21.5928 116.679 20.9344V23.1044C115.419 24.092 113.994 24.5858 112.405 24.5858L112.407 24.5875Z" fill="white"/>
<path d="M122.503 7.12402C122.761 7.12402 122.982 7.21783 123.168 7.40367C123.354 7.58951 123.448 7.81252 123.448 8.06916C123.448 8.34172 123.354 8.5665 123.168 8.74526C122.982 8.92402 122.759 9.01429 122.503 9.01429C122.23 9.01429 122.005 8.92579 121.827 8.74526C121.648 8.5665 121.558 8.33995 121.558 8.06916C121.558 7.81075 121.646 7.58951 121.827 7.40367C122.005 7.21783 122.232 7.12402 122.503 7.12402ZM121.751 10.8833H123.255V24.5877H121.751V10.8833Z" fill="white"/>
<path d="M131.223 10.8833C132.683 10.8833 133.936 11.4054 134.982 12.4514C136.026 13.4975 136.55 14.7506 136.55 16.2107V24.5877H135.046V16.2107C135.046 15.1647 134.67 14.2709 133.918 13.5258C133.166 12.7806 132.267 12.409 131.223 12.409C130.178 12.409 129.279 12.7806 128.527 13.5258C127.775 14.2709 127.4 15.1665 127.4 16.2107V24.5877H125.874V16.2107C125.874 14.7506 126.396 13.4975 127.442 12.4514C128.488 11.4072 129.748 10.8833 131.223 10.8833Z" fill="white"/>
<path d="M102.041 13.0211C100.701 11.683 99.0868 11.0122 97.1966 11.0122C95.3063 11.0122 93.6921 11.6812 92.3523 13.0211C91.7789 13.5945 91.3276 14.2193 91.0001 14.8954H92.7612C92.9523 14.6157 93.1736 14.3485 93.4267 14.0954C94.4656 13.0565 95.7222 12.5379 97.1966 12.5379C98.6709 12.5379 99.9276 13.0565 100.966 14.0954C102.005 15.1343 102.524 16.391 102.524 17.8653C102.524 19.3396 102.005 20.5963 100.966 21.6352C99.9276 22.6742 98.6709 23.1927 97.1966 23.1927C95.7222 23.1927 94.4656 22.6742 93.4267 21.6352C93.1045 21.3149 92.8337 20.9715 92.6125 20.6087H90.8975C91.232 21.3715 91.7152 22.0724 92.3523 22.7096C93.6904 24.0494 95.3063 24.7184 97.1966 24.7184C99.0868 24.7184 100.701 24.0494 102.041 22.7096C103.381 21.3697 104.05 19.7556 104.05 17.8653C104.05 15.975 103.381 14.3609 102.041 13.0211Z" fill="white"/>
<path d="M97.4533 16.9844H89.832V18.4888H97.4533V16.9844Z" fill="white"/>
<path d="M96.1092 14.9806L95.0454 16.0444L97.7975 18.7965L98.8613 17.7327L96.1092 14.9806Z" fill="white"/>
<path d="M97.798 16.6727L95.0459 19.4248L96.1097 20.4886L98.8618 17.7365L97.798 16.6727Z" fill="white"/>
<path d="M7.14825 13.8795C7.14825 11.9999 7.81374 10.3981 9.14471 9.07422C10.4757 7.75033 12.081 7.08838 13.9606 7.08838V10.122C12.9217 10.122 12.0314 10.4884 11.2916 11.2229C10.5518 11.9556 10.1801 12.8424 10.1801 13.8813V20.7167H7.14648V13.8813L7.14825 13.8795Z" fill="#EF4444"/>
<path d="M13.9555 10.1205C14.5856 10.1205 15.1254 10.3453 15.5767 10.7966C16.028 11.248 16.2528 11.7878 16.2528 12.4179C16.2528 13.048 16.028 13.5878 15.5767 14.0391C15.1254 14.4905 14.5856 14.7152 13.9555 14.7152H11.3555L15.6723 24.5754H18.9802L15.844 17.4002C16.8599 17.0143 17.6918 16.3666 18.336 15.4568C18.9802 14.5471 19.3024 13.5347 19.3024 12.4179C19.3024 10.9436 18.7802 9.68337 17.7342 8.63735C16.6882 7.59134 15.428 7.08691 13.9537 7.08691" fill="#EF4444"/>
<path d="M10.1821 20.7139H7.14844V24.5864H10.1821V20.7139Z" fill="#EF4444"/>
<path d="M5.27589 14.5644V13.6847C5.27589 9.07236 9.07412 5.27412 13.6865 5.27412H14.5662C14.8086 5.27412 15.0051 5.07767 15.0051 4.83519V3.95554C15.0051 3.71306 14.8086 3.5166 14.5662 3.5166H13.6865C8.10244 3.5166 3.5166 8.10244 3.5166 13.6865V14.5662C3.5166 14.8086 3.71306 15.0051 3.95554 15.0051H4.83519C5.07766 15.0051 5.27412 14.8086 5.27412 14.5662L5.27589 14.5644Z" fill="#EF4444"/>
<path d="M0.00177029 13.685V14.5646C0.00177029 14.8071 0.19823 15.0035 0.440708 15.0035H1.32035C1.56283 15.0035 1.75929 14.8071 1.75929 14.5646V13.685C1.75929 7.1292 7.13274 1.75752 13.6867 1.75752H14.5664C14.8089 1.75752 15.0053 1.56106 15.0053 1.31859V0.43894C15.0053 0.196462 14.8089 0 14.5664 0H13.6867C6.16106 0 0 6.15929 0 13.6867L0.00177029 13.685Z" fill="#EF4444"/>
</svg>
