<svg width="137" height="30" viewBox="0 0 137 30" fill="none" xmlns="http://www.w3.org/2000/svg">
<path d="M32.469 22.5787C31.1291 23.9185 29.515 24.5876 27.6247 24.5876C25.7344 24.5876 24.1203 23.9185 22.7805 22.5787C21.4406 21.2407 20.7716 19.6247 20.7716 17.7345C20.7716 15.8442 21.4406 14.23 22.7805 12.8902C24.1203 11.5504 25.7344 10.8813 27.6247 10.8813C29.515 10.8813 31.1291 11.5504 32.469 12.8902C33.807 14.23 34.4778 15.8442 34.4778 17.7345C34.4778 19.6247 33.8088 21.2389 32.469 22.5787ZM24.9398 20.4194C25.6849 21.1645 26.5787 21.5362 27.6247 21.5362C28.6707 21.5362 29.5645 21.1645 30.3097 20.4194C31.0548 19.6743 31.4265 18.7805 31.4265 17.7345C31.4265 16.6884 31.0548 15.7734 30.3097 15.0283C29.5645 14.2831 28.669 13.9114 27.6247 13.9114C26.5805 13.9114 25.6849 14.2831 24.9398 15.0283C24.1946 15.7734 23.8229 16.6743 23.8229 17.7345C23.8229 18.7946 24.1946 19.6743 24.9398 20.4194Z" fill="#EF4444"/>
<path d="M36.0018 18.4867V10.8832H39.0302V18.4867C39.0302 19.3168 39.3275 20.0336 39.9222 20.6354C40.5169 21.2372 41.2355 21.5381 42.0815 21.5381C42.9275 21.5381 43.6461 21.2372 44.2408 20.6354C44.8355 20.0336 45.1328 19.3186 45.1328 18.4867V10.8832H48.1824V18.4867C48.1824 20.177 47.5877 21.6159 46.4001 22.8036C45.2125 23.9912 43.7718 24.5858 42.0833 24.5858C40.3948 24.5858 38.9753 23.9912 37.7877 22.8036C36.5983 21.6159 36.0054 20.1752 36.0054 18.4867H36.0018Z" fill="#EF4444"/>
<path d="M54.154 7.08142V10.7327H55.5293V13.0089H54.154V20.0106C54.154 20.4407 54.3009 20.8018 54.5947 21.0956C54.8885 21.3894 55.2425 21.5363 55.6585 21.5363H56.4319V24.5859H55.6585C54.3983 24.5859 53.3239 24.1381 52.4354 23.2443C51.547 22.3487 51.1045 21.2708 51.1045 20.0106V13.0089H49.7292V10.7327H51.1045V7.08142H54.154Z" fill="#EF4444"/>
<path d="M58.9963 12.892C60.3344 11.554 61.9503 10.8832 63.8406 10.8832C65.7309 10.8832 67.345 11.5522 68.6849 12.892C70.0229 14.2319 70.6937 15.846 70.6937 17.7363C70.6937 18.0513 70.6725 18.3593 70.63 18.6602H61.2866V16.3841H67.4087C67.1362 15.6531 66.6742 15.0602 66.0229 14.6018C65.3716 14.1434 64.6441 13.915 63.8424 13.915C62.7822 13.915 61.8831 14.2903 61.1468 15.0425C60.4087 15.7947 60.0406 16.6938 60.0406 17.7381C60.0406 18.7823 60.4052 19.6602 61.1362 20.4124C61.8671 21.1646 62.768 21.5398 63.8424 21.5398C64.7875 21.5398 65.6034 21.2389 66.2902 20.6372H70.0495C69.4902 21.8266 68.6565 22.7823 67.5468 23.5044C66.4371 24.2283 65.2017 24.5894 63.8424 24.5894C61.9521 24.5894 60.3379 23.9204 58.9981 22.5805C57.6583 21.2425 56.9893 19.6266 56.9893 17.7363C56.9893 15.846 57.6583 14.2319 58.9981 12.892H58.9963Z" fill="#EF4444"/>
<path d="M72.1543 17.7132C72.1543 15.8229 72.8233 14.2123 74.1632 12.8796C75.5012 11.5486 77.1171 10.8813 79.0074 10.8813V13.9309C77.9614 13.9309 77.0676 14.299 76.3224 15.0371C75.5773 15.7752 75.2056 16.6654 75.2056 17.7114V24.5858H72.1561V17.7114L72.1543 17.7132Z" fill="#EF4444"/>
<path d="M80.5947 7.08142H82.1204V23.062H89.8319V24.5876H80.5947V7.08142Z" fill="#27272A"/>
<path d="M112.407 24.5876C110.517 24.5876 108.903 23.9185 107.563 22.5787C106.223 21.2407 105.554 19.6247 105.554 17.7345C105.554 15.8442 106.223 14.23 107.563 12.8902C108.901 11.5521 110.517 10.8813 112.407 10.8813C114.298 10.8813 115.912 11.5504 117.252 12.8902C118.59 14.23 119.26 15.8442 119.26 17.7345V23.1468C119.26 25.023 118.588 26.6336 117.241 27.9805C115.894 29.3256 114.283 30 112.407 30C110.961 30 109.65 29.584 108.476 28.7539C107.301 27.9238 106.471 26.8495 105.984 25.5309H107.637C108.082 26.4194 108.729 27.1309 109.581 27.669C110.432 28.2053 111.374 28.4743 112.406 28.4743C113.88 28.4743 115.137 27.9557 116.175 26.9168C117.214 25.8778 117.733 24.6212 117.733 23.1468V17.7345C117.733 16.2601 117.214 15.0035 116.175 13.9645C115.137 12.9256 113.88 12.407 112.406 12.407C110.931 12.407 109.675 12.9256 108.636 13.9645C107.597 15.0035 107.078 16.2601 107.078 17.7345C107.078 19.2088 107.597 20.4654 108.636 21.5044C109.675 22.5433 110.929 23.0619 112.406 23.0619C113.264 23.0619 114.066 22.8725 114.811 22.492C115.556 22.1132 116.179 21.5929 116.68 20.9345V23.1044C115.42 24.092 113.995 24.5858 112.406 24.5858L112.407 24.5876Z" fill="#27272A"/>
<path d="M122.503 7.1239C122.761 7.1239 122.982 7.2177 123.168 7.40355C123.354 7.58939 123.448 7.8124 123.448 8.06903C123.448 8.3416 123.354 8.56638 123.168 8.74514C122.982 8.9239 122.759 9.01417 122.503 9.01417C122.23 9.01417 122.005 8.92567 121.827 8.74514C121.648 8.56638 121.558 8.33983 121.558 8.06903C121.558 7.81063 121.646 7.58939 121.827 7.40355C122.005 7.2177 122.232 7.1239 122.503 7.1239ZM121.751 10.8832H123.255V24.5876H121.751V10.8832Z" fill="#27272A"/>
<path d="M131.223 10.8832C132.683 10.8832 133.936 11.4053 134.982 12.4513C136.027 13.4973 136.551 14.7504 136.551 16.2106V24.5876H135.046V16.2106C135.046 15.1646 134.671 14.2708 133.919 13.5257C133.167 12.7805 132.267 12.4088 131.223 12.4088C130.179 12.4088 129.28 12.7805 128.528 13.5257C127.775 14.2708 127.4 15.1664 127.4 16.2106V24.5876H125.875V16.2106C125.875 14.7504 126.397 13.4973 127.443 12.4513C128.489 11.4071 129.749 10.8832 131.223 10.8832Z" fill="#27272A"/>
<path d="M102.041 13.0212C100.701 11.6832 99.0868 11.0124 97.1966 11.0124C95.3063 11.0124 93.6922 11.6814 92.3523 13.0212C91.7789 13.5947 91.3276 14.2195 91.0001 14.8956H92.7612C92.9523 14.6159 93.1736 14.3487 93.4267 14.0956C94.4656 13.0566 95.7222 12.5381 97.1966 12.5381C98.6709 12.5381 99.9276 13.0566 100.967 14.0956C102.005 15.1345 102.524 16.3912 102.524 17.8655C102.524 19.3398 102.005 20.5965 100.967 21.6354C99.9276 22.6744 98.6709 23.1929 97.1966 23.1929C95.7222 23.1929 94.4656 22.6744 93.4267 21.6354C93.1045 21.3151 92.8337 20.9717 92.6125 20.6089H90.8975C91.232 21.3717 91.7152 22.0726 92.3523 22.7098C93.6904 24.0496 95.3063 24.7186 97.1966 24.7186C99.0868 24.7186 100.701 24.0496 102.041 22.7098C103.381 21.3699 104.05 19.7558 104.05 17.8655C104.05 15.9752 103.381 14.3611 102.041 13.0212Z" fill="#27272A"/>
<path d="M97.4533 16.9841H89.832V18.4886H97.4533V16.9841Z" fill="#27272A"/>
<path d="M96.1092 14.9807L95.0454 16.0445L97.7975 18.7966L98.8613 17.7328L96.1092 14.9807Z" fill="#27272A"/>
<path d="M97.7977 16.6728L95.0457 19.4249L96.1094 20.4887L98.8615 17.7366L97.7977 16.6728Z" fill="#27272A"/>
<path d="M7.14862 13.8798C7.14862 12.0002 7.81411 10.3984 9.14508 9.07453C10.4761 7.75063 12.0814 7.08868 13.961 7.08868V10.1223C12.9221 10.1223 12.0318 10.4887 11.292 11.2232C10.5522 11.956 10.1805 12.8427 10.1805 13.8816V20.717H7.14685V13.8816L7.14862 13.8798Z" fill="#EF4444"/>
<path d="M13.9558 10.1204C14.5859 10.1204 15.1257 10.3451 15.5771 10.7965C16.0284 11.2478 16.2532 11.7876 16.2532 12.4177C16.2532 13.0478 16.0284 13.5876 15.5771 14.039C15.1257 14.4903 14.5859 14.7151 13.9558 14.7151H11.3558L15.6727 24.5752H18.9806L15.8443 17.4C16.8603 17.0142 17.6921 16.3664 18.3364 15.4566C18.9806 14.5469 19.3027 13.5345 19.3027 12.4177C19.3027 10.9434 18.7806 9.68319 17.7346 8.63717C16.6886 7.59115 15.4284 7.08673 13.9541 7.08673" fill="#EF4444"/>
<path d="M10.1823 20.7134H7.14868V24.5859H10.1823V20.7134Z" fill="#EF4444"/>
<path d="M5.27614 14.5646V13.6849C5.27614 9.07255 9.07438 5.27431 13.6868 5.27431H14.5664C14.8089 5.27431 15.0054 5.07785 15.0054 4.83537V3.95573C15.0054 3.71325 14.8089 3.51678 14.5664 3.51678H13.6868C8.10269 3.51678 3.51685 8.10263 3.51685 13.6867V14.5664C3.51685 14.8088 3.71331 15.0053 3.95578 15.0053H4.83543C5.07791 15.0053 5.27437 14.8088 5.27437 14.5664L5.27614 14.5646Z" fill="#EF4444"/>
<path d="M0.00177029 13.685V14.5646C0.00177029 14.8071 0.19823 15.0036 0.440708 15.0036H1.32036C1.56283 15.0036 1.75929 14.8071 1.75929 14.5646V13.685C1.75929 7.12921 7.13275 1.75752 13.6867 1.75752H14.5664C14.8089 1.75752 15.0053 1.56107 15.0053 1.31859V0.438941C15.0053 0.196462 14.8089 0 14.5664 0H13.6867C6.16107 0 0 6.1593 0 13.6867L0.00177029 13.685Z" fill="#EF4444"/>
</svg>
