<svg width="270" height="60" viewBox="0 0 270 60" fill="none" xmlns="http://www.w3.org/2000/svg">
<g clip-path="url(#clip0_216_4494)">
<path d="M233.356 23.2559C233.356 21.9111 234.446 20.7987 235.813 20.7987C237.181 20.7987 238.271 21.9111 238.271 23.2559C238.271 24.6238 237.181 25.7132 235.814 25.7132C234.446 25.7132 233.356 24.6007 233.356 23.2559ZM233.819 23.2559C233.819 24.3688 234.701 25.2732 235.814 25.2732C236.903 25.2732 237.807 24.3688 237.807 23.2559C237.807 22.1431 236.903 21.2387 235.814 21.2387C234.7 21.2387 233.819 22.1431 233.819 23.2559ZM235.443 24.6469H234.863V21.8415H235.976C236.532 21.8415 236.973 22.12 236.973 22.7228C236.973 23.1397 236.741 23.3948 236.439 23.534L237.019 24.6473H236.393L235.883 23.6272H235.442L235.443 24.6469ZM235.929 22.3981H235.442V23.0936H235.929C236.138 23.0936 236.37 23.0005 236.37 22.7455C236.37 22.4677 236.138 22.3981 235.929 22.3981ZM118.316 42.6149L108.301 27.5677V42.6149H103.826V20.7983H108.996L118.455 35.0334V20.7983H122.93V42.6149H118.316ZM133.154 27.4058C128.633 27.4058 124.994 30.7674 124.994 35.2188C124.994 39.7164 128.587 42.9623 133.108 42.9623C137.606 42.9623 141.246 39.6237 141.246 35.1257C141.223 30.6743 137.629 27.4054 133.155 27.4054L133.154 27.4058ZM133.108 38.9513C131.068 38.9513 129.422 37.3984 129.422 35.1261C129.422 32.9004 131.045 31.3471 133.062 31.3471C135.102 31.3471 136.748 32.9004 136.748 35.1261C136.771 37.3984 135.148 38.9513 133.108 38.9513ZM152.49 27.7304V31.9964C151.911 31.8807 151.284 31.8807 151.099 31.8807C149.012 31.8807 147.552 33.3413 147.552 36.1001V42.6149H143.286V27.7304H147.413V29.9096H147.459C148.27 28.2174 149.778 27.5681 151.307 27.5681C151.655 27.5681 152.189 27.6373 152.49 27.73L152.49 27.7304ZM164.94 20.7983V29.4461H164.894C163.363 27.6377 161.3 27.4754 160.442 27.4754C156.176 27.4754 153.301 31.3937 153.301 35.1727C153.301 39.1837 156.06 42.9161 160.373 42.9161C161.37 42.9161 163.595 42.7769 165.01 40.7366H165.056V42.638H169.276V20.7979L164.94 20.7983ZM161.37 38.9517C159.329 38.9517 157.683 37.3984 157.683 35.1261C157.683 32.9004 159.329 31.3702 161.37 31.3702C163.41 31.3702 165.056 32.9004 165.056 35.1261C165.033 37.3984 163.41 38.9517 161.37 38.9517ZM178.503 42.6149L170.597 20.7983H175.489L181.146 37.3753L186.826 20.7979H191.625L183.696 42.6149H178.503ZM201.595 20.7983H193.48V42.6149H198.001V34.9172H201.409C205.977 34.9172 209.384 32.5988 209.384 27.7762C209.384 23.1628 205.953 20.7983 201.595 20.7983ZM201.224 30.7213H198.001V25.0639H201.2C203.079 25.0639 204.841 25.7824 204.841 27.9154C204.841 29.9327 203.009 30.7213 201.224 30.7213ZM226.147 42.6149L216.108 27.5677V42.6149H211.657V20.7983H216.827L226.286 35.0334V20.7983H230.761V42.6149H226.147Z" fill="#2C3038"/>
<path d="M36.3784 52.9808C32.9937 48.3209 30.9995 42.5708 30.9995 36.3345C30.9995 20.6849 43.6583 8.00305 59.2844 8.00305C74.9106 8.00305 87.5693 20.6849 87.5693 36.3576C87.5693 42.5712 85.5756 48.3209 82.1905 53.0039L68.6042 30.886L67.2829 33.1117L68.6042 39.2788L59.2609 23.2814L53.5113 33.0421L54.8561 39.2788L49.9642 30.9091L36.3784 52.9808Z" fill="#4580FF"/>
</g>
<defs>
<clipPath id="clip0_216_4494">
<rect width="207.269" height="45" fill="white" transform="translate(31 8)"/>
</clipPath>
</defs>
</svg>
