<svg width="142" height="100" viewBox="0 0 142 100" fill="none" xmlns="http://www.w3.org/2000/svg">
<path d="M0 17L11 0V17H0Z" fill="#008430"/>
<path d="M142 17L131 0V17H142Z" fill="#008430"/>
<path d="M11 0H131V76.5823C131 89.5117 121.393 100 109.551 100H32.5321C20.6894 100 11 89.5118 11 76.5823V0Z" fill="#22C55E"/>
<circle cx="71" cy="50" r="36" fill="white"/>
<path d="M74.9292 61.4889C74.9292 55.4789 77.7761 53.8974 77.7761 53.8974C81.73 49.9435 81.9261 43.7342 77.9753 39.7803C76.0772 37.8825 73.5029 36.8164 70.8188 36.8164C68.1346 36.8164 65.5604 37.8825 63.6622 39.7803C59.7083 43.7342 59.9044 49.9435 63.8583 53.8974C63.8583 53.8974 66.7051 55.4789 66.7051 61.4889H74.9292Z" stroke="#27272A" stroke-width="2" stroke-linecap="round" stroke-linejoin="round"/>
<path d="M72.7147 69.0811H68.9189H72.7147Z" fill="#27272A"/>
<path d="M72.7147 69.0811H68.9189" stroke="#27272A" stroke-width="2" stroke-linecap="round" stroke-linejoin="round"/>
<path d="M73.9806 65.2852H67.6543H73.9806Z" fill="#27272A"/>
<path d="M73.9806 65.2852H67.6543" stroke="#27272A" stroke-width="2" stroke-linecap="round" stroke-linejoin="round"/>
<path d="M70.5 31.123V33.0209V31.123Z" fill="#27272A"/>
<path d="M70.5 31.123V33.0209" stroke="#27272A" stroke-width="2" stroke-linecap="round" stroke-linejoin="round"/>
<path d="M55.001 46.6221H56.8989H55.001Z" fill="#27272A"/>
<path d="M55.001 46.6221H56.8989" stroke="#27272A" stroke-width="2" stroke-linecap="round" stroke-linejoin="round"/>
<path d="M84.7354 46.6221H86.0006H84.7354Z" fill="#27272A"/>
<path d="M84.7354 46.6221H86.0006" stroke="#27272A" stroke-width="2" stroke-linecap="round" stroke-linejoin="round"/>
<path d="M59.54 57.5834L60.8812 56.2422L59.54 57.5834Z" fill="#27272A"/>
<path d="M59.54 57.5834L60.8812 56.2422" stroke="#27272A" stroke-width="2" stroke-linecap="round" stroke-linejoin="round"/>
<path d="M80.5654 36.5573L81.4606 35.6621L80.5654 36.5573Z" fill="#27272A"/>
<path d="M80.5654 36.5573L81.4606 35.6621" stroke="#27272A" stroke-width="2" stroke-linecap="round" stroke-linejoin="round"/>
<path d="M59.54 35.6621L60.8812 37.0033L59.54 35.6621Z" fill="#27272A"/>
<path d="M59.54 35.6621L60.8812 37.0033" stroke="#27272A" stroke-width="2" stroke-linecap="round" stroke-linejoin="round"/>
<path d="M80.5654 56.6875L81.4606 57.5827L80.5654 56.6875Z" fill="#27272A"/>
<path d="M80.5654 56.6875L81.4606 57.5827" stroke="#27272A" stroke-width="2" stroke-linecap="round" stroke-linejoin="round"/>
</svg>
